<svg xmlns="http://www.w3.org/2000/svg" viewBox="0 0 519.16 541.51"><defs><style>.cls-1,.cls-4,.cls-5{fill:none;stroke-miterlimit:10}.cls-1,.cls-5{stroke:#000}.cls-1{stroke-width:4px}.cls-2{fill:#f90f06}.cls-3{fill:#fff}.cls-4{stroke:#fffeff}.cls-5{stroke-width:2px}</style></defs><title>Лось</title><g id="Слой_2" data-name="Слой 2"><path class="cls-1" d="M395 333s11 66 81 66c0 0 17.5 1.5 55.5-4.5 0 0 49-7 49 9 0 0-11 8-22 11 0 0 0 36-4 44 0 0 11 0 13 2 0 0-16 8-16 58 0 0-17 8-23 18 0 0-3 47 26 82 0 0 18-2 37 44 0 0 14-14 19-16 0 0 12-4 21 2 0 0 13 0 15-2 0 0 9 18 34 17 0 0 34-4 42-12 0 0-13-1-16-4 0 0 28-1 42-13 0 0-11 1-17-1 0 0 23-11 27-19 0 0-20 5-27-2 0 0-7-6 10-13 0 0 25-7 8-51 0 0-2-6 9-3 0 0 60 8 31 62l-28 46s152-85 130-202c0 0 8-3 13 3 0 0-9-26-32-39 0 0-4-5 2-5 0 0 14-1 16-6 0 0-31 0-73-32 0 0 12-14 9-24 0 0-29 6-40 1s19-12 19-12 94-35 4-182c0 0 6 20 3 27 0 0-21-44-38-53 0 0 25 44 18 70 0 0-15-45-27-53 0 0 12 39 9 54 0 0-8-16-19-24 0 0 17 42 1 65 0 0-12-14-13-19 0 0 9 49-18 63 0 0-60-83-100-105 0 0 60 69 81 122 0 0 16 34-19 34s-100-3-118-21c0 0 5 16 58 32a43.7 43.7 0 0 1-19 27s-39 2-65-37c0 0-11-30 9-70 0 0-9-1-21 13 0 0-9-16 1-36 0 0-14 7-26 39 0 0-12-23-9-58 0 0-9 9-19 49 0 0-20-9-23-44 0 0-9 25-7 65 0 0 5 34-15 25 0 0-23-9-36-63 0 0-4 84 69 121 0 0-46 6-71.5-45.5z" transform="translate(-390.81 -124.52)"/><path d="M621 366s14-16 14-17c0 0 35 9 50 8 0 0 2.5 1.5-.5 3.5 0 0-11 10-13 9l-3-1s-5 21-24 20c0 0 8 8 29 10 0 0-40 29-44 44v2s-14 3-17 0a28.42 28.42 0 0 1-1-16s-10 18-6 28c0 0-11 9-12 12 0 0 23-26 78-19l1-9s9-1 11 5c0 0-1-8-3-11s3-4 7-1a34 34 0 0 0-4-15c-4-7 2-9 2-9s25-23 58-5c0 0-10 4-18 2s-1 3-1 3 29 25 47 36c0 0 1 2 0 2 0 0-12-1-16-4 0 0 12 24 9 31 0 0-10-4-15-9 0 0 3 20-4 27 0 0-6-7-8-8s-21-9-10 15 1 13 1 13-7-6-20-23c0 0-6 13-4 17 0 0-11-5-13-14 0 0-1 10-1 12 0 0-12-5-13-13 0 0-9 12-12 14 0 0-1-26-13-36 0 0 0 26-6 33 0 0 0-21-18-34 0 0 10 24 5 35 0 0-28-3-43 16 0 0 42-35 64 14 0 0 22-38 63-17 0 0 24 18 32 57 0 0 4 10.75-10 26.88l5.89-2.81 4.85-4.56 4.06-8.44 1.13-8.2-.32-6.69L754 563l-1.65-6.32-1.8-5.45-1-2.74.55-2.82 3.33-1 8.24 1.41 8.18 2.3 7.35 3.08 7.94 5s6.59 6 6.5 6.54 4.82 9.94 4.82 9.94l1 9.73-1.78 10.29-4.71 11.9-27.67 45.86-1.72 2.82 37.38-25.43 25.54-21.65s-28 24.04-30 21.04-1-6 3-10 18-36 12-61c0 0-1 13-5 10s-2-22-7-26c0 0 2 5-2 11 0 0-6-12-11-21 0 0 6 16 2 14s-23-26-5-47c0 0 63-3 59 20 0 0-1 14-8 19 0 0 34-17 6 23 0 0 24-15-2 23 0 0-11 19-18 26s16.37-12.25 16.37-12.25l19.08-21.47 13.23-18.3 9.54-16.37-27.22 36.39s-13 13-3-5c0 0 9-17 6-23 0 0 15-22-7-26a3.53 3.53 0 0 1 1-4s31-15-19-34c0 0-6-5 13-4 0 0-16-13-59-5 0 0-1-13-13-20 0 0 19 2 24 0 0 0-30-20-39-29a2.77 2.77 0 0 1 0-4s22-22 55-20c0 0-10 9-13 9 0 0 51-3 59 5 0 0 3 3-2 3 0 0-17-1-22 1 0 0 39 5 48 17s-1 6-1 6l-4-2s30 43 2 97 2.54-1 2.54-1l12.84-36.27 2.4-16.52.22-16.71-.77-8.68-1.22-7.85 3.62-.71 3.17.15 4.85 2.21 1.36 1.36-6.39-13-5.37-7.92-4.35-5.21-5.55-5.46-5.07-4-5.27-3.36-1.21-2.35a8.89 8.89 0 0 1 .12-1.53c.1-.12 5.1-1.12 5.1-1.12s4.09-.93 4.54-1 6.46-2 6.46-2l3-3-19-3.48s-15.44-5.46-15.22-5.49-12.38-6-12.38-6l-25.55-16.43-.86-.65 6.58-10.08 2.56-7.22-.15-6.69-18.5 2.63-15.68-.12-7.46-2.54-.43-2.47 4.18-3 7.68-3 14.34-4.99 10.69-7.3 8-7.67 8.42-11.57 4.39-8.82 4.48-14.64 1.83-15.8-.23-11.56-1.26-11-2-10.18-4.52-16.46-4.93-15.5-7.72-15.68L818 170l-3.59-6.3s38.09 103.8-83.91 127.8c0 0-8 0-5-5l-.39-1.53-9-12-16.71-21.07-16.76-19.74-21-22.38-13.57-12.74-10.42-8.52-6.17-4.38-6-3.67 18.58 22.69 21.31 28.45 19.79 29.74L698 283.9l6.46 13.58 4.84 13.38.7 10.64s14.55 26-34.45 25-77-18-77-18-12.8-3.61-12.9-3.8-9.83-4.5-9.83-4.5l-6.26-4.69 3.93 5.46 10.51 8.26 13 6.94 20.53 7.33 10 4z" transform="translate(-390.81 -124.52)"/><path class="cls-2" d="M642 435s8-14 18-23c0 0 3-2 3 5v9s0 4-3 5-13 4-13 4-6 2-5 0z" transform="translate(-390.81 -124.52)"/><path d="M592 659s11-19 26-20c0 0 8.5.5 14.5 3.5 0 0 13 6 26-12 0 0 11-15 10-30s.27-66.25 19-70c17.5-3.5 30-2 42 31 0 0 13 32-7 25 0 0-35-7-49 14 0 0-2 33-14 39s-4 10-4 10 20 14 47 3c0 0-9-4-10-7 0 0 23 0 31-1s-13.25 2.74-13.25 2.74l-3.75.26 15 3.91 1 .09-6.34 3.86-10 3.33-14.31 3.09-14.34 1.76-7.23-.76-10.45-3.64-5.7-3.78-4.36-4.25-3.25-4.62L641 648l-8.53.5h-1l-6.31-2.68-6.57-.62-9.04 1.8-6.55 4.84-9.16 8.38-2.34 2.29z" transform="translate(-390.81 -124.52)"/><path class="cls-3" d="M674 582s-2-40 12-46 37 23 33 46c0 0-33.2-5-45.1 10.5z" transform="translate(-390.81 -124.52)" id="Слой_8" data-name="Слой 8"/><path d="M281.19 458.48h3l23-20-4-10 6 8 11-9 5-2v4l-8 6-22 19-9 9-4 5-1-10z"/></g><g id="Слой_6" data-name="Слой 6"><path d="M549 610s13.5 11.5 40.5 8.5c0 0-13 9-14 13l-6-5.12-6.3-5-4.55-2.18-4.15-.73zm54 2s36-20 20-71c0 0-1-3 3-2s10 4 11 5c0 0-7.5-1.5-9.5-.5s11 20 9 41-19 30-33.5 27.5z" transform="translate(-390.81 -124.52)"/><path d="M565 412l-2 42h14s19 5 3 9c0 0-23-3-22 63 0 0-17 1-22 11s0 57 22 75l9 7s23 18 29 37l-2 4-6.49-6.5-6.76-12.6-10.08-13.52-9.92-7.63L554 618l-5-8-6.95-10.61-6.51-15.65-3.83-13.89-2.71-17.4V536l2.19-3.12 7-6.3 8.79-5.69 4-2.89.6-6.28.84-12.71s1.34-10.16 1.45-10.08S556 478 556 478l3.92-8.1 5.78-8.05L567 460l-5.65-1.15-6.55-1 2.83-18.2.61-12 .24-10.63v-1.88zM397.5 257.5s11 77 97 122c0 0-29 5-47-2l1-.22 6.43 1 4.68.36h4l2.87-.19-13.85-8.16-13.47-10.66-10.56-11.05-9.57-13.14-9-16.9-6.84-19.09-4.12-19.45-1.33-12.29-.24-6.25zM450 247s17 35 30 38c0 0 8-40 10-43 0 0 7 52 17 54 0 0 10-35 21-43 0 0-9 23-3 42 0 0 9-9 12-10 0 0-19 54 31 87h2l-4-4.2-5-5.8-4-8.05-9-10.95-5-8-2-10v-21l2-8 3-13 5-13 1-2-7 1-7 5-4 5-3 1-2-7-1-5v-8l2-9 1-5-6 4-6.5 8.5-8 15-2 6-2 3-3-7-3-10-2-7-1-13v-18s-4 7-5 7-4 8-4 8l-4 11-6 19-1 1-6-4-7-10-4-8-2-9-4-6-3 8z" transform="translate(-390.81 -124.52)"/><path d="M399.77 348.51s23.73 56 127.73 40 53 15 53 15l-.26-1.92-3.74-5.08-7.64-2.24s-12.48-1.77-12.92-1.27-10.44.5-10.44.5l-9.87.5-22.44 3-16.8 1.64-19 .46-13.78-.81s-8.39-1.72-9.75-1.74-9.35-2.84-9.35-2.84l-8.84-4-12.17-7.21-10.11-11.05-8.95-13.18z" transform="translate(-390.81 -124.52)"/><path class="cls-5" d="M577 407s48-34 51-58" transform="translate(-390.81 -124.52)"/></g></svg>